# xmcd CD database file
#
# Track frame offsets:
#	150
#	32127
#	75326
#	119657
#	148049
#	171050
#	206151
#	241247
#	274837
#	301565
#
# Disc length: 4261 seconds
#
# Revision: 1
# Processed by: cddbd v1.5.2PL0 Copyright (c) Steve Scherf et al.
# Submitted via: CDex 1.70beta2
#
DISCID=8310a30a
DTITLE=Fred Hersch Pocket Orchestra - Live At Jazz Standard
DYEAR=2009
DGENRE=Jazz
TTITLE0=Stuttering
TTITLE1=Child's Song
TTITLE2=Song Without Words #4: Duet 
TTITLE3=Light Years
TTITLE4=Down Home
TTITLE5=Invitation To The Dance (Sarabande)
TTITLE6=Lee's Dream
TTITLE7=Canzona
TTITLE8=Free Flying
TTITLE9=A Wish (Valentine)
EXTD=YEAR: 2009
EXTT0=
EXTT1=
EXTT2=
EXTT3=
EXTT4=
EXTT5=
EXTT6=
EXTT7=
EXTT8=
EXTT9=
PLAYORDER=
